<?xml version="1.0" standalone="no"?>
<!DOCTYPE svg PUBLIC "-//W3C//DTD SVG 20010904//EN"
 "http://www.w3.org/TR/2001/REC-SVG-20010904/DTD/svg10.dtd">
<svg version="1.0" xmlns="http://www.w3.org/2000/svg"
 width="860.000000pt" height="921.000000pt" viewBox="0 0 860.000000 921.000000"
 preserveAspectRatio="xMidYMid meet">
<metadata>
Created by potrace 1.16, written by Peter Selinger 2001-2019
</metadata>
<g transform="translate(0.000000,921.000000) scale(0.100000,-0.100000)"
fill="#000000" stroke="none">
<path d="M4065 8804 c-22 -2 -92 -9 -155 -14 -1067 -99 -2094 -679 -2762
-1563 -475 -628 -763 -1381 -827 -2160 -14 -165 -14 -549 0 -714 96 -1172 690
-2251 1627 -2955 560 -421 1213 -680 1927 -765 176 -21 646 -24 815 -5 523 60
958 190 1405 421 1147 591 1950 1719 2150 3017 34 224 45 381 45 644 0 485
-58 857 -206 1315 -297 917 -944 1731 -1769 2224 -500 299 -1023 474 -1615
541 -96 11 -561 21 -635 14z m484 -224 c885 -61 1706 -428 2345 -1050 663
-645 1049 -1431 1168 -2380 18 -141 18 -737 0 -880 -49 -399 -146 -768 -292
-1111 -411 -965 -1194 -1724 -2155 -2089 -161 -61 -240 -64 -310 -9 -62 50
-59 19 -66 759 -5 655 -6 678 -27 760 -42 161 -99 279 -181 371 l-39 45 146
23 c483 73 829 223 1079 464 129 125 211 237 288 392 150 306 212 630 202
1060 -4 172 -10 241 -26 317 -52 238 -158 461 -305 642 l-48 58 21 72 c77 262
65 586 -34 877 -13 40 -30 76 -37 80 -41 26 -223 1 -388 -54 -155 -51 -494
-230 -617 -327 -21 -17 -27 -16 -140 12 -544 133 -1169 131 -1689 -5 l-91 -24
-74 49 c-248 164 -458 267 -661 322 -99 28 -238 43 -281 32 -29 -7 -43 -38
-81 -177 -71 -259 -74 -533 -10 -765 l26 -92 -65 -81 c-117 -149 -224 -364
-271 -548 -32 -124 -46 -257 -46 -443 0 -478 98 -864 295 -1166 81 -123 262
-303 385 -384 175 -114 349 -190 570 -249 113 -30 388 -81 436 -81 30 0 31
-11 2 -36 -38 -34 -116 -163 -147 -242 -16 -42 -37 -116 -46 -163 l-17 -85
-67 -26 c-138 -53 -195 -63 -366 -63 -149 0 -165 2 -235 28 -181 66 -318 192
-441 401 -44 76 -165 205 -246 263 -127 91 -282 136 -394 115 -70 -13 -99 -34
-99 -70 0 -39 43 -86 148 -161 183 -129 300 -286 402 -536 73 -179 140 -277
261 -380 83 -72 237 -148 364 -182 90 -23 118 -26 280 -26 128 -1 206 4 270
16 50 9 96 17 103 17 9 0 12 -77 12 -352 0 -322 -2 -357 -19 -394 -33 -72
-112 -112 -198 -100 -106 14 -491 183 -710 312 -143 83 -342 220 -468 320
-149 119 -470 442 -588 590 -434 549 -699 1152 -811 1844 -34 207 -46 371 -46
620 0 257 12 414 50 646 108 663 364 1245 792 1799 115 149 463 499 611 615
758 592 1651 873 2576 810z"/>
</g>
</svg>
